/* XPM */
static const char *mines2_xpm[] = {
/* columns rows colors chars-per-pixel */
"24 18 16 1 ",
"  c #646464",
". c #686868",
"X c DimGray",
"o c #FF4B00",
"O c #FF5006",
"+ c #FE5D18",
"@ c #FF6524",
"# c #826357",
"$ c #8E7064",
"% c #929292",
"& c #ACACAC",
"* c gray69",
"= c #B9B9B9",
"- c #A9CC8A",
"; c #FECAB4",
": c gray78",
/* pixels */
"------------;-----------",
"------ooo--oooo-----o---",
"-----ooooooo  oo--@oo---",
"-----oo oo%  &oooooo----",
"-----ooo       :  oo----",
"--ooooo           o-----",
"-oooooo          oo-----",
"--ooo            ooo----",
"---o             * oo---",
"---o               oo---",
"---ooo=          oooo---",
"----ooo          oo-----",
"-----ooo        oo------",
"------oo         o+-----",
"-----o  Xoo# oooooo-----",
"-----oo$oooX o--o-------",
"-----o----ooo-----------",
"------------o-----------"
};
