/* XPM */
static const char *UzoIcon_xpm[] = {
/* columns rows colors chars-per-pixel */
"64 64 108 2 ",
"   c #776057",
".  c #776158",
"X  c #646464",
"o  c #9E5A3E",
"O  c #B55932",
"+  c #EA4E0C",
"@  c #FD4B01",
"#  c #FE4A00",
"$  c #FF4A00",
"%  c #FE4B00",
"&  c #FF4B00",
"*  c #FE4B01",
"=  c #FD4A02",
"-  c #FC4B02",
";  c #FE4C01",
":  c #FE4D03",
">  c #FA4A05",
",  c #F94B07",
"<  c #FF4E05",
"1  c #F04D09",
"2  c #F64A0C",
"3  c #F64B0C",
"4  c #F64B0D",
"5  c #F64C0D",
"6  c #F94A09",
"7  c #F94B09",
"8  c #EF4A16",
"9  c #ED4B1A",
"0  c #F34A10",
"q  c #F14B13",
"w  c #F34B12",
"e  c #F34B13",
"r  c #F44A11",
"t  c #F44B11",
"y  c #F44B13",
"u  c #F04A15",
"i  c #F04B17",
"p  c #EA5314",
"a  c #C45425",
"s  c #C45527",
"d  c #DF4B31",
"f  c #DE4B33",
"g  c #DD4B35",
"h  c #DE4B34",
"j  c #D54B3F",
"k  c #D84A3C",
"l  c #E54B27",
"z  c #E64B27",
"x  c #E84A23",
"c  c #E34B29",
"v  c #E44B28",
"b  c #E54A29",
"n  c #E24A2C",
"m  c #E44E2E",
"M  c #E15B2F",
"N  c #8A5F4D",
"B  c #985C43",
"V  c #BD4A66",
"C  c #BE4B67",
"Z  c #BB4B6B",
"A  c #BC4A68",
"S  c #BA4B6C",
"D  c #BA4A6D",
"F  c #B94B6E",
"G  c #B74B71",
"H  c #B34A76",
"J  c #B34B77",
"K  c #B44B75",
"L  c #B64B74",
"P  c #B44A76",
"I  c #B34A78",
"U  c #B34B78",
"Y  c #B34A79",
"T  c #B34B79",
"R  c #B14B7C",
"E  c #B04B7D",
"W  c #B67B74",
"Q  c #CF4B4A",
"!  c #CD4B4E",
"~  c #D44B41",
"^  c #D64A40",
"/  c #D44A43",
"(  c #D34A44",
")  c #D34A45",
"_  c #CC4A50",
"`  c #C94B56",
"'  c #C84B57",
"]  c #C74B59",
"[  c #C24A5F",
"{  c #C24B5F",
"}  c #C14B63",
"|  c #C55165",
" . c #B1BB7D",
".. c #AE4A81",
"X. c #AC4A83",
"o. c #AB4B85",
"O. c #AB4A86",
"+. c #AB4B86",
"@. c #AA4A87",
"#. c #A94A88",
"$. c #A94B89",
"%. c #A94B8A",
"&. c #B04E81",
"*. c #A95B8A",
"=. c #A97B8A",
"-. c #A99B8A",
";. c #A9BB8A",
":. c #A9CC8A",
/* pixels */
"%.%.%.%.%.%.%.%.%.%.%.%.%.%.%.%.%.%.%.%.%.%.%.%.%.%.%.%.%.%.%.%.%.%.%.%.%.%.%.%.%.%.%.%.%.%.%.%.%.%.%.%.%.%.%.%.%.%.%.%.%.%.%.%.",
"%.%.%.%.%.%.%.%.%.%.%.%.%.%.%.%.%.%.%.%.%.%.%.%.%.%.%.%.%.%.%.%.%.%.%.%.%.%.%.%.%.%.%.%.%.%.%.%.%.%.%.%.%.%.%.%.%.%.%.%.%.%.%.%.",
"%.%.%.%.%.%.%.%.%.%.%.%.%.%.%.%.%.%.%.%.%.%.%.%.%.%.%.%.%.%.%.%.%.%.%.%.%.%.%.%.%.%.%.%.%.%.%.%.%.%.%.%.%.%.%.%.%.%.%.%.%.%.%.%.",
"%.%.%.%.%.%.%.%.%.%.%.%.%.%.%.%.%.%.%.%.%.%.%.%.%.%.%.%.%.%.%.%.%.%.%.%.%.%.%.%.%.%.%.%.%.%.%.%.%.%.%.%.%.%.%.%.%.%.%.%.%.%.%.%.",
"%.%.%.%.%.%.%.%.%.%.%.%.%.%.%.%.%.%.%.%.%.%.%.%.%.%.%.%.%.%.%.%.%.%.%.%.%.%.%.%.%.%.%.%.%.%.%.%.%.%.%.%.%.%.%.%.%.%.%.%.%.%.%.%.",
"%.%.%.%.%.%.%.%.%.%.%.%.%.%.%.%.%.%.%.%.%.%.%.%.%.%.%.%.%.%.%.%.%.%.%.%.%.%.%.%.%.%.%.%.%.%.%.%.%.%.%.%.%.%.%.%.%.%.%.%.%.%.%.%.",
"%.%.%.%.%.%.%.%.%.%.%.%.%.%.%.%.%.%.%.%.%.%.%.%.%.%.%.%.%.%.%.%.%.%.%.%.%.%.%.%.%.%.%.%.%.%.%.%.%.%.%.%.%.%.%.%.%.%.%.%.%.%.%.%.",
"%.%.%.%.%.%.%.%.%.%.%.%.%.%.%.%.%.%.%.%.%.%.%.%.%.%.%.%.%.%.%.%.%.%.%.%.%.%.%.%.%.%.%.%.%.%.%.%.%.%.%.%.%.%.%.%.%.%.%.%.%.%.%.%.",
"%.%.%.%.%.%.%.%.%.%.%.%.%.%.%.%.%.%.%.%.%.%.%.%.%.%.%.%.%.%.%.%.%.%.%.%.%.%.%.%.%.%.%.%.%.%.%.%.%.%.%.%.%.%.%.%.%.%.%.%.%.%.%.%.",
"%.%.%.%.%.%.%.%.%.%.%.%.%.%.%.%.%.%.%.%.%.%.%.%.%.%.%.%.%.%.%.%.%.%.%.%.%.%.%.%.%.%.%.%.%.%.%.%.%.%.%.%.%.%.%.%.%.%.%.%.%.%.%.%.",
"%.%.%.%.%.%.} } } } } } %.%.%.%.%.%.%.%.%.%.%.%.%.%.%.%.%.%.%.%.%.%.%.%.%.%.%.%.%.%.%.%.$.%.$.$.%.%.%.%.%.%.%.%.%.%.%.%.%.%.%.%.",
"%.%.%.%.%.%.M M M M M M %.%.%.%.%.%.%.%.%.%.%.%.%.%.%.%.%.%.%.%.%.%.%.%.%.%.%.%.%.%.%.%.$.$.$.@.*.*.*.*.*.*.%.%.%.%.%.%.%.%.%.%.",
"%.%.%.%.%.%. . . . . . .%.%.%.%.%.%.%.%.%.%.%.%.%.%.%.%.%.%.%.%.%.%.%.%.%.%.%.%.%.%.%.%.%.%.%.Z ;.;.;.;.;.;.%.%.%.%.%.%.%.%.%.%.",
"%.%.%.%.%.%.:.:.:.:.:.:.%.%.%.%.%.%.%.%.%.%.%.%.%.%.%.%.%.%.%.%.%.%.%.%.%.%.%.%.%.%.%.%.%.%.%.C :.:.:.:.:.:.%.%.%.%.%.%.%.%.%.%.",
"%.%.%.%.%.%.:.:.:.:.:.:.%.%.%.%.%.%.%.%.%.%.%.%.%.%.%.%.%.%.%.%.%.%.%.%.%.%.%.%.%.%.%.%.%.%.%.C :.:.:.:.:.:.%.%.%.%.%.%.%.%.%.%.",
"%.%.%.%.%.%.:.:.:.:.:.:.%.%.%.%.%.%.%.%.%.%.%.%.%.%.%.%.%.%.%.%.%.%.%.%.%.%.%.%.%.%.%.%.%.%.%.C :.:.:.:.:.:.%.%.%.%.%.%.%.%.%.%.",
"%.%.%.%.%.%.:.:.:.:.:.:.%.%.%.%.%.%.%.%.%.%.%.%.%.%.%.%.%.%.%.%.%.%.%.%.%.%.%.%.%.%.%.%.%.%.%.C :.:.:.:.:.:.%.%.%.%.%.%.%.%.%.%.",
"%.%.%.%.%.%.:.:.:.:.:.:.%.%.%.%.%.%.L L L L L L L L L L L L L L L L L L L L L L L L L L L %.%.C :.:.:.:.:.:.%.%.%.%.%.%.%.%.%.%.",
"%.%.%.%.%.%.:.:.:.:.:.:.%.%.%.%.%.%.W W W W W W W W W W W W W W W W W W W W W W W W W W W %.%.C :.:.:.:.:.:.%.%.%.%.%.%.%.%.%.%.",
"%.%.%.%.%.%.:.:.:.:.:.:.%.%.%.%.%.%.;.;.;.;.;.;.;.;.;.;.;.;.;.;.;.;.;.;.;.;.;.;.;.;.;.;.;.%.%.C :.:.:.:.:.:.%.%.%.%.%.%.%.%.%.%.",
"%.%.%.%.%.%.:.:.:.:.:.:.%.%.%.%.%.%.*.*.*.*.*.*.*.*.*.*.*.*.*.*.*.*.*.*.*.*.*.*.*.*.*.*.*.%.%.C :.:.:.:.:.:.%.%.%.%.%.%.%.%.%.%.",
"%.%.%.%.%.%.:.:.:.:.:.:.%.%.%.%.%.%.%.%.%.%.%.%.%.%.%.%.%.%.%.%.%.%.%.%.%.%.%.%.%.%.%.%.%.%.%.C :.:.:.:.:.:.%.%.%.%.%.%.%.%.%.%.",
"%.%.%.%.%.%.:.:.:.:.:.:.%.%.%.%.%.%.%.%.%.%.%.%.%.%.%.%.%.%.%.%.%.%.%.%.%.%.%.%.%.%.%.%.%.%.%.C :.:.:.:.:.:.%.%.%.%.%.%.%.%.%.%.",
"%.%.%.%.%.%.:.:.:.:.:.:.%.%.%.%.U %.%.%.U %.%.%.%.%.%.%.%.%.%.%.%.%.%.%.%.%.%.%.%.%.%.%.%.%.%.C :.:.:.:.:.:.%.%.%.%.%.%.%.%.%.%.",
"%.%.%.%.%.%.:.:.:.:.:.:.%.%.%.%.t %.%.%.8 %.%.%.%.%.%.%.%.%.%.%.%.%.%.%.%.%.%.%.%.%.%.%.%.%.%.C :.:.:.:.:.:.%.%.%.%.%.%.%.%.%.%.",
"%.%.%.%.%.%.:.:.:.:.:.:.%.%.%.%.& ^ h %.- h %.%.%.%.%.%.%.%.%.%.%.%.%.%.%.%.%.%.%.%.%.%.%.%.%.C :.:.:.:.:.:.%.%.%.%.%.%.%.%.%.%.",
"%.%.%.%.%.%.:.:.:.:.:.:.%.%.%.%.& 2 f %.& & %.%.%.%.%.%.%.%.%.%.%.%.%.%.%.%.%.%.%.%.%.%.%.%.%.C :.:.:.:.:.:.%.%.%.%.%.%.%.%.%.%.",
"%.%.%.%.%.%.:.:.:.:.:.:.%.%.%.U & & %.%.- & %.%.%.%.%.%.%.%.%.%.%.%.%.%.%.%.%.%.%.%.%.%.%.%.%.C :.:.:.:.:.:.%.%.%.%.%.%.%.%.%.%.",
"%.%.%.%.%.%.:.:.:.:.:.:.%.%.%.t & & %.%.& & %.%.%.%.%.%.%.%.%.%.%.%.%.%.%.$.%.%.%.%.%.%.%.%.%.C :.:.:.:.:.:.%.%.%.%.%.%.%.%.%.%.",
"%.%.%.%.%.%.:.:.:.:.:.:.%.%.%.& & & %.H & & %.%.%.%.%.%.%.%.%.%.%.%.%.%.%.h h %.%.%.%.%.%.%.%.C :.:.:.:.:.:.%.%.%.%.%.%.%.%.%.%.",
"%.%.%.%.%.%.:.:.:.:.:.:.%.%.%.& & h %./ & h %.%.%.%.%.%.%.E @.%.%.%.%.%.%.& ; %.%.%.%.%.%.%.%.C :.:.:.:.:.:.%.%.%.%.%.%.%.%.%.%.",
"%.%.%.%.%.%.:.:.:.:.:.:.%.%.%.& & %.%.- & %.%.%.%.%.U @.U [ ..%.%.U U U %.t & %.%.%.%.%.%.%.%.C :.:.:.:.:.:.%.%.%.%.%.%.%.%.%.%.",
"%.%.%.%.%.%.:.:.:.:.:.:.%.%.%.& & %.%.& & %.%.%.%.%.0 F 8 c %.%.%.t t t %.U & %.%.%.%.%.%.%.%.C :.:.:.:.:.:.%.%.%.%.%.%.%.%.%.%.",
"%.%.%.%.%.%.:.:.:.:.:.:.%.%.U - & %.%.& & %.%.%.h f & z ; 2 %.%.h ; o & f ( ` %.%.%.%.%.%.%.%.C :.:.:.:.:.:.%.%.%.%.%.%.%.%.%.%.",
"%.%.%.%.%.%.:.:.:.:.:.:.%.%.( & & %.%.& & %.%.%.& & z - & f %.' & s X s & 0 %.%.` %.%.%.%.%.%.C :.:.:.:.:.:.%.%.%.%.%.%.%.%.%.%.",
"%.%.%.%.%.%.:.:.:.:.:.:.%.%.& & 0 %.E & & %.%.%.i 0 C , 0 %.%.& 1 X X X + & %.U & @.%.%.%.%.%.C :.:.:.:.:.:.%.%.%.%.%.%.%.%.%.%.",
"%.%.%.%.%.%.:.:.:.:.:.:.%.%.& & U %.m & & %.%.%.U U D & U %.%.& B X X X   & %.0 & H %.%.%.%.%.C :.:.:.:.:.:.%.%.%.%.%.%.%.%.%.%.",
"%.%.%.%.%.%.:.:.:.:.:.:.%.%.& & %.%.2 - & %.%.%.%.%.b & %.%.%.& N X X X X & %.& & n %.%.%.%.%.C :.:.:.:.:.:.%.%.%.%.%.%.%.%.%.%.",
"%.%.%.%.%.%.:.:.:.:.:.:.%.%.& & ' ..- ; c %.%.%.%.' & f %.%.%.& O X X X X & %.h f & ` %.%.%.%.C :.:.:.:.:.:.%.%.%.%.%.%.%.%.%.%.",
"%.%.%.%.%.%.:.:.:.:.:.:.%.%.& & > | & & C %.%.%.%.& - U E %.%.& < X X X   & %.%.U & t %.%.%.%.C :.:.:.:.:.:.%.%.%.%.%.%.%.%.%.%.",
"%.%.%.%.%.%.:.:.:.:.:.:.%.%.& & u e ; ; [ %.%.%.%.& & 0 f $.%.& & X X X p & %.%.0 & U %.%.%.%.C :.:.:.:.:.:.%.%.%.%.%.%.%.%.%.%.",
"%.%.%.%.%.%.:.:.:.:.:.:.%.%.& & 7 ; ~ 9 x k %.%.Q & & & 5 h @.` & a a a ; - %.%.& ' %.%.%.%.%.C :.:.:.:.:.:.%.%.%.%.%.%.%.%.%.%.",
"%.%.%.%.%.%.:.:.:.:.:.:.%.%.f f f h K _ f k %.%.i & z ; & & _ %.f f h f f h %.%.f %.%.%.%.%.%.C :.:.:.:.:.:.%.%.%.%.%.%.%.%.%.%.",
"%.%.%.%.%.%.:.:.:.:.:.:.%.%.%.%.$.$.$.$.%.%.%.%.& 7 Z t t & & %.%.%.%.%.%.%.%.%.%.%.%.%.%.%.%.C :.:.:.:.:.:.%.%.%.%.%.%.%.%.%.%.",
"%.%.%.%.%.%.:.:.:.:.:.:.%.%.%.%.%.%.%.%.%.%.%.%.& j @.U U & , %.%.%.%.%.%.%.%.%.%.%.%.%.%.%.%.C :.:.:.:.:.:.%.%.%.%.%.%.%.%.%.%.",
"%.%.%.%.%.%.:.:.:.:.:.:.%.%.%.%.%.%.%.%.%.%.%.%.& L $.$.%.` ] %.%.%.%.%.%.%.%.%.%.%.%.%.%.%.%.C :.:.:.:.:.:.%.%.%.%.%.%.%.%.%.%.",
"%.%.%.%.%.%.:.:.:.:.:.:.%.%.%.%.%.%.%.%.%.%.%.%.f %.%.%.%.%.%.%.%.%.%.%.%.%.%.%.%.%.%.%.%.%.%.C :.:.:.:.:.:.%.%.%.%.%.%.%.%.%.%.",
"%.%.%.%.%.%.:.:.:.:.:.:.%.%.%.%.%.%.%.%.%.%.%.%.%.%.%.%.%.%.%.%.%.%.%.%.%.%.%.%.%.%.%.%.%.%.%.C :.:.:.:.:.:.%.%.%.%.%.%.%.%.%.%.",
"%.%.%.%.%.%.:.:.:.:.:.:.%.%.%.%.%.%.%.%.%.%.%.%.%.%.%.%.%.%.%.%.%.%.%.%.%.%.%.%.%.%.%.%.%.%.%.C :.:.:.:.:.:.%.%.%.%.%.%.%.%.%.%.",
"%.%.%.%.%.%.:.:.:.:.:.:.%.%.%.%.%.%.%.%.-.-.-.-.-.-.-.-.-.-.-.-.-.-.-.-.-.-.-.-.-.-.-.-.-.%.%.C :.:.:.:.:.:.%.%.%.%.%.%.%.%.%.%.",
"%.%.%.%.%.%.:.:.:.:.:.:.%.%.%.%.%.%.%.%.:.:.:.:.:.:.:.:.:.:.:.:.:.:.:.:.:.:.:.:.:.:.:.:.:.%.%.C :.:.:.:.:.:.%.%.%.%.%.%.%.%.%.%.",
"%.%.%.%.%.%.:.:.:.:.:.:.%.%.%.%.%.%.%.%.:.:.:.:.:.:.:.:.:.:.:.:.:.:.:.:.:.:.:.:.:.:.:.:.:.%.%.C :.:.:.:.:.:.%.%.%.%.%.%.%.%.%.%.",
"%.%.%.%.%.%.:.:.:.:.:.:.%.%.%.%.%.%.%.%.:.:.:.:.:.:.:.:.:.:.:.:.:.:.:.:.:.:.:.:.:.:.:.:.:.%.%.C :.:.:.:.:.:.%.%.%.%.%.%.%.%.%.%.",
"%.%.%.%.%.%.:.:.:.:.:.:.%.%.%.%.%.%.%.%.=.=.=.=.=.=.=.=.=.=.=.=.=.=.=.=.=.=.=.=.=.=.=.=.=.%.%.C :.:.:.:.:.:.%.%.%.%.%.%.%.%.%.%.",
"%.%.%.%.%.%.:.:.:.:.:.:.%.%.%.%.%.%.%.%.%.%.%.%.%.%.%.%.%.%.%.%.%.%.%.%.%.%.%.%.%.%.%.%.%.%.%.L -.-.-.-.-.-.%.%.%.%.%.%.%.%.%.%.",
"%.%.%.%.%.%.;.;.;.;.;.;.%.%.%.%.%.%.%.%.%.%.%.%.%.%.%.%.%.%.%.%.%.%.%.%.%.%.%.%.%.%.%.%.%.%.%.%.%.%.%.%.%.%.%.%.%.%.%.%.%.%.%.%.",
"%.%.%.%.%.%.*.*.*.*.*.*.%.%.%.%.%.%.%.%.%.%.%.%.%.%.%.%.%.%.%.%.%.%.%.%.%.%.%.%.%.%.%.%.%.%.%.%.%.%.%.%.%.%.%.%.%.%.%.%.%.%.%.%.",
"%.%.%.%.%.%.%.%.%.%.%.%.%.%.%.%.%.%.%.%.%.%.%.%.%.%.%.%.%.%.%.%.%.%.%.%.%.%.%.%.%.%.%.%.%.%.%.%.%.%.%.%.%.%.%.%.%.%.%.%.%.%.%.%.",
"%.%.%.%.%.%.%.%.%.%.%.%.%.%.%.%.%.%.%.%.%.%.%.%.%.%.%.%.%.%.%.%.%.%.%.%.%.%.%.%.%.%.%.%.%.%.%.%.%.%.%.%.%.%.%.%.%.%.%.%.%.%.%.%.",
"%.%.%.%.%.%.%.%.%.%.%.%.%.%.%.%.%.%.%.%.%.%.%.%.%.%.%.%.%.%.%.%.%.%.%.%.%.%.%.%.%.%.%.%.%.%.%.%.%.%.%.%.%.%.%.%.%.%.%.%.%.%.%.%.",
"%.%.%.%.%.%.%.%.%.%.%.%.%.%.%.%.%.%.%.%.%.%.%.%.%.%.%.%.%.%.%.%.%.%.%.%.%.%.%.%.%.%.%.%.%.%.%.%.%.%.%.%.%.%.%.%.%.%.%.%.%.%.%.%.",
"%.%.%.%.%.%.%.%.%.%.%.%.%.%.%.%.%.%.%.%.%.%.%.%.%.%.%.%.%.%.%.%.%.%.%.%.%.%.%.%.%.%.%.%.%.%.%.%.%.%.%.%.%.%.%.%.%.%.%.%.%.%.%.%.",
"%.%.%.%.%.%.%.%.%.%.%.%.%.%.%.%.%.%.%.%.%.%.%.%.%.%.%.%.%.%.%.%.%.%.%.%.%.%.%.%.%.%.%.%.%.%.%.%.%.%.%.%.%.%.%.%.%.%.%.%.%.%.%.%.",
"%.%.%.%.%.%.%.%.%.%.%.%.%.%.%.%.%.%.%.%.%.%.%.%.%.%.%.%.%.%.%.%.%.%.%.%.%.%.%.%.%.%.%.%.%.%.%.%.%.%.%.%.%.%.%.%.%.%.%.%.%.%.%.%."
};
